# Blender 3.5.1
# www.blender.org
mtllib pyramid2.mtl
o imagetostl_mesh0
v 0.705838 0.000000 -0.705838
v 0.000000 0.959074 0.000000
v 0.705838 0.000000 0.705838
v -0.705838 0.000000 -0.705838
v -0.705838 0.000000 0.705838
v 0.153282 0.000000 0.705838
v 0.167409 0.233925 0.533679
v 0.167409 0.284757 0.496269
v -0.167409 0.284757 0.496269
v -0.167409 0.233925 0.533679
v -0.152357 0.233925 0.533679
v -0.152357 0.000000 0.705838
v 0.153282 0.233925 0.533679
v 0.167409 0.233925 0.783486
v 0.153282 0.233925 0.783486
v -0.152357 0.000000 0.783486
v -0.152357 0.233925 0.783486
v -0.167409 0.233925 0.783486
v -0.167409 0.284757 0.783486
v 0.167409 0.284757 0.783486
v 0.153282 0.000000 0.783486
v 0.105241 0.233925 0.783486
v 0.105241 0.000000 0.783486
v -0.104317 0.233925 0.783486
v -0.104317 0.000000 0.783486
v -0.104317 0.233925 0.434981
v 0.105241 0.233925 0.434981
v -0.104317 0.000000 0.434981
v 0.105241 0.000000 0.434399
v 0.105241 0.233925 0.434399
v 0.477264 0.233925 0.434399
v 0.477264 0.233925 0.434981
v 0.477264 0.287179 0.434981
v -0.479440 0.000000 0.434981
v -0.479440 0.287179 0.434981
v -0.479440 0.000000 -0.426906
v -0.479440 0.287179 -0.426906
v 0.477264 0.287179 -0.426906
v 0.508278 0.000000 -0.426906
v 0.508278 0.000000 0.434399
v 0.477264 0.233925 -0.426906
v 0.508278 0.233925 -0.426906
v 0.508278 0.233925 0.434399
vn 0.8054 0.5927 -0.0000
vn -0.0000 0.5927 -0.8054
vn -0.8054 0.5927 -0.0000
vn -0.0000 0.5927 0.8054
vn -0.0000 -1.0000 -0.0000
vn -1.0000 -0.0000 -0.0000
vn 1.0000 -0.0000 -0.0000
vn -0.0000 1.0000 -0.0000
vn -0.0000 -0.0000 1.0000
vn -0.0000 -0.0000 -1.0000
vt 0.071429 0.142038
vt 0.143676 0.142038
vt 0.360418 0.856324
vt 0.432666 0.715105
vt 0.434303 0.785714
vt 0.000819 0.071429
vt 0.143676 0.000819
vt 0.215923 0.142038
vt 0.217561 0.214286
vt 0.360418 0.142038
vt 0.289808 0.214286
vt 0.071429 0.000819
vt 0.145314 0.214286
vt 0.288171 0.000819
vt 0.288171 0.284895
vt 0.215923 0.856324
vt 0.288171 0.715105
vt 0.289808 0.785714
vt 0.073066 0.071429
vt 0.145314 0.071429
vt 0.504913 0.856324
vt 0.577160 0.715105
vt 0.578798 0.785714
vt 0.215923 0.000819
vt 0.071429 0.284895
vt 0.360418 0.143676
vt 0.071429 0.427753
vt 0.143676 0.286533
vt 0.649408 0.856324
vt 0.721655 0.715105
vt 0.723293 0.785714
vt 0.143676 0.143676
vt 0.215923 0.284895
vt 0.288171 0.570610
vt 0.360418 0.429390
vt 0.071429 0.856324
vt 0.143676 0.715105
vt 0.145314 0.785714
vt 0.143676 0.284895
vt 0.215923 0.143676
vt 0.217561 0.071429
vt 0.145314 0.357143
vt 0.504913 0.427753
vt 0.071429 0.429390
vt 0.288171 0.142038
vt 0.288171 0.143676
vt 0.360418 0.000819
vt 0.434303 0.357143
vt 0.145314 0.500000
vt 0.289808 0.071429
vt 0.360418 0.284895
vt 0.071429 0.286533
vt 0.504913 0.142038
vt 0.504913 0.143676
vt 0.143676 0.570610
vt 0.215923 0.429390
vt 0.000819 0.357143
vt 0.073066 0.357143
vt 0.432666 0.284895
vt 0.432666 0.286533
vt 0.434303 0.071429
vt 0.071429 0.143676
vt 0.143676 0.427753
vt 0.360418 0.427753
vt 0.432666 0.000819
vt 0.362056 0.214286
vt 0.000819 0.214286
vt 0.289808 0.357143
vt 0.793903 0.572247
vt 0.793903 0.856324
vt 0.866150 0.000819
vt 0.866150 0.143676
vt 0.073066 0.214286
vt 0.215923 0.427753
vt 0.288171 0.286533
vt 0.217561 0.500000
vt 0.215923 0.286533
vt 0.288171 0.427753
vt 0.000819 0.500000
vt 0.362056 0.500000
vt 0.217561 0.357143
vt 0.288171 0.429390
vt 0.360418 0.570610
vt 0.432666 0.570610
vt 0.506551 0.357143
vt 0.577160 0.429390
vt 0.360418 0.286533
vt 0.432666 0.142038
vt 0.434303 0.500000
vt 0.723293 0.642857
vt 0.362056 0.071429
vt 0.432666 0.143676
vt 0.432666 0.427753
vt 0.504913 0.570610
vt 0.577160 0.000819
vt 0.649408 0.427753
vt 0.649408 0.429390
vt 0.362056 0.357143
vt 0.504913 0.000819
vt 0.504913 0.284895
vt 0.578798 0.500000
vt 0.434303 0.214286
vt 0.073066 0.500000
vt 0.578798 0.214286
vt 0.649408 0.286533
vt 0.649408 0.570610
vt 0.504913 0.286533
vt 0.071429 0.570610
vt 0.143676 0.429390
vt 0.215923 0.570610
vt 0.432666 0.429390
vt 0.577160 0.570610
vt 0.649408 0.000819
vt 0.649408 0.284895
vt 0.289808 0.500000
vt 0.577160 0.143676
vt 0.577160 0.427753
vt 0.000819 0.785714
vt 0.577160 0.284895
vt 0.577160 0.286533
vt 0.506551 0.500000
vt 0.578798 0.071429
vt 0.000819 0.642857
vt 0.434303 0.642857
vt 0.506551 0.214286
vt 0.432666 0.572247
vt 0.504913 0.713467
vt 0.071429 0.715105
vt 0.143676 0.856324
vt 0.506551 0.071429
vt 0.649408 0.142038
vt 0.649408 0.143676
vt 0.578798 0.357143
vt 0.071429 0.572247
vt 0.143676 0.713467
vt 0.145314 0.642857
vt 0.504913 0.429390
vt 0.577160 0.142038
vt 0.215923 0.572247
vt 0.288171 0.713467
vt 0.793903 0.713467
vt 0.795540 0.214286
vt 0.073066 0.642857
vt 0.215923 0.713467
vt 0.288171 0.572247
vt 0.721655 0.142038
vt 0.721655 0.286533
vt 0.721655 0.570610
vt 0.721655 0.572247
vt 0.071429 0.713467
vt 0.143676 0.572247
vt 0.360418 0.713467
vt 0.432666 0.713467
vt 0.504913 0.572247
vt 0.577160 0.713467
vt 0.649408 0.572247
vt 0.721655 0.143676
vt 0.651046 0.357143
vt 0.217561 0.642857
vt 0.651046 0.071429
vt 0.795540 0.071429
vt 0.866150 0.284895
vt 0.360418 0.572247
vt 0.362056 0.642857
vt 0.073066 0.785714
vt 0.215923 0.715105
vt 0.288171 0.856324
vt 0.938397 0.143676
vt 0.938397 0.427753
vt 0.289808 0.642857
vt 0.578798 0.642857
vt 0.867788 0.357143
vt 0.577160 0.572247
vt 0.649408 0.713467
vt 0.938397 0.142038
vt 0.938397 0.284895
vt 0.938397 0.286533
vt 0.938397 0.570610
vt 0.938397 0.713467
vt 0.938397 0.715105
vt 0.073066 0.928571
vt 0.506551 0.642857
vt 0.651046 0.214286
vt 0.867788 0.500000
vt 0.721655 0.284895
vt 0.721655 0.427753
vt 0.721655 0.429390
vt 0.723293 0.357143
vt 0.938397 0.429390
vt 0.867788 0.642857
vt 0.721655 0.000819
vt 0.721655 0.713467
vt 0.723293 0.214286
vt 0.651046 0.785714
vt 0.793903 0.715105
vt 0.866150 0.142038
vt 0.651046 0.500000
vt 0.651046 0.642857
vt 0.793903 0.000819
vt 0.793903 0.284895
vt 0.793903 0.286533
vt 0.793903 0.570610
vt 0.793903 0.142038
vt 0.793903 0.143676
vt 0.506551 0.785714
vt 0.649408 0.715105
vt 0.721655 0.856324
vt 0.795540 0.642857
vt 0.795540 0.785714
vt 0.723293 0.071429
vt 0.723293 0.500000
vt 0.866150 0.429390
vt 0.866150 0.713467
vt 0.793903 0.427753
vt 0.793903 0.429390
vt 0.795540 0.500000
vt 0.938397 0.572247
vt 0.938397 0.856324
vt 0.362056 0.785714
vt 0.504913 0.715105
vt 0.577160 0.856324
vt 0.866150 0.427753
vt 0.866150 0.715105
vt 0.217561 0.928571
vt 0.217561 0.785714
vt 0.360418 0.715105
vt 0.432666 0.856324
vt 0.938397 0.000819
vt 0.867788 0.214286
vt 0.215923 0.999181
vt 0.288171 0.857962
vt 0.866150 0.286533
vt 0.866150 0.570610
vt 0.866150 0.572247
vt 0.866150 0.856324
vt 0.867788 0.785714
vt 0.071429 0.999181
vt 0.143676 0.857962
vt 0.795540 0.357143
vt 0.000819 0.928571
vt 0.215923 0.857962
vt 0.288171 0.999181
vt 0.867788 0.071429
vt 0.071429 0.857962
vt 0.143676 0.999181
vt 0.145314 0.928571
s 0
usemtl mat0
f 1/1/1 2/6/1 3/12/1
f 1/2/2 4/19/2 2/7/2
f 2/8/3 4/20/3 5/24/3
f 5/25/4 12/67/4 11/62/4
f 7/39/4 13/73/4 6/32/4
f 6/33/4 3/13/4 7/40/4
f 8/45/4 7/41/4 3/14/4
f 3/15/4 2/9/4 8/46/4
f 2/10/4 9/50/4 8/47/4
f 9/51/4 2/11/4 5/26/4
f 5/27/4 10/57/4 9/52/4
f 11/63/4 10/58/4 5/28/4
f 13/74/5 7/42/5 14/77/5
f 14/78/5 15/81/5 13/75/5
f 11/64/6 12/68/6 16/87/6
f 16/88/6 17/91/6 11/65/6
f 10/59/5 11/66/5 17/92/5
f 17/93/5 18/98/5 10/60/5
f 9/53/6 10/61/6 18/99/6
f 18/100/6 19/102/6 9/54/6
f 7/43/7 8/48/7 20/107/7
f 20/108/7 14/79/7 7/44/7
f 9/55/8 19/103/8 20/109/8
f 20/110/8 8/49/8 9/56/8
f 6/34/7 13/76/7 15/82/7
f 15/83/7 21/115/7 6/35/7
f 15/84/9 14/80/9 20/111/9
f 17/94/9 16/89/9 25/137/9
f 25/138/9 24/130/9 17/95/9
f 22/119/9 23/125/9 21/116/9
f 21/117/9 15/85/9 22/120/9
f 20/112/9 22/121/9 15/86/9
f 24/131/9 22/122/9 20/113/9
f 20/114/9 19/104/9 24/132/9
f 17/96/9 24/133/9 19/105/9
f 19/106/9 18/101/9 17/97/9
f 27/150/5 22/123/5 24/134/5
f 24/135/5 26/143/5 27/151/5
f 26/144/7 24/136/7 25/139/7
f 25/140/7 28/159/7 26/145/7
f 27/152/6 30/170/6 29/163/6
f 27/153/6 29/164/6 23/126/6
f 23/127/6 22/124/6 27/154/6
f 27/155/8 32/182/8 31/173/8
f 31/174/8 30/171/8 27/156/8
f 26/146/10 28/160/10 34/191/10
f 33/185/10 32/183/10 27/157/10
f 33/186/10 27/158/10 26/147/10
f 26/148/10 35/197/10 33/187/10
f 34/192/10 35/198/10 26/149/10
f 36/203/7 37/210/7 35/199/7
f 35/200/7 34/193/7 36/204/7
f 38/214/5 33/188/5 35/201/5
f 35/202/5 37/211/5 38/215/5
f 25/141/5 16/90/5 12/69/5
f 6/36/5 21/118/5 23/128/5
f 23/129/5 29/165/5 6/37/5
f 3/16/5 6/38/5 29/166/5
f 29/167/5 40/225/5 3/17/5
f 1/3/5 3/18/5 40/226/5
f 40/227/5 39/219/5 1/4/5
f 4/21/5 1/5/5 39/220/5
f 39/221/5 36/205/5 4/22/5
f 5/29/5 4/23/5 36/206/5
f 36/207/5 34/194/5 5/30/5
f 12/70/5 5/31/5 34/195/5
f 34/196/5 28/161/5 12/71/5
f 28/162/5 25/142/5 12/72/5
f 39/222/9 42/239/9 41/232/9
f 41/233/9 38/216/9 37/212/9
f 37/213/9 36/208/9 41/234/9
f 41/235/9 36/209/9 39/223/9
f 31/175/10 43/243/10 40/228/10
f 31/176/10 40/229/10 29/168/10
f 29/169/10 30/172/10 31/177/10
f 31/178/6 32/184/6 33/189/6
f 31/179/6 33/190/6 38/217/6
f 38/218/6 41/236/6 31/180/6
f 41/237/5 42/240/5 43/244/5
f 43/245/5 31/181/5 41/238/5
f 40/230/6 43/246/6 42/241/6
f 42/242/6 39/224/6 40/231/6
