# Blender 3.5.1
# www.blender.org
mtllib pyramid_final1.mtl
o Cone
v -1.414214 0.000000 -1.414214
v 1.414214 0.000000 -1.414214
v 0.500000 0.500000 0.400000
v 1.414214 0.000000 1.414214
v -1.414214 0.000000 1.414214
v 0.500000 0.500000 -0.400000
v 0.000000 2.000000 0.000000
v -1.000000 0.000000 1.000000
v -1.000000 0.500000 1.000000
v -1.000000 0.000000 -1.000000
v -1.000000 0.500000 -1.000000
v 1.000000 0.000000 1.000000
v 1.000000 0.500000 1.000000
v 1.000000 0.000000 -1.000000
v 1.000000 0.500000 -1.000000
v 1.414214 0.000000 0.400000
v 1.060660 0.500000 0.400000
v 1.414214 0.000000 -0.400000
v 1.060660 0.500000 -0.400000
v 0.500000 0.000000 0.400000
v 0.500000 0.000000 -0.400000
v 1.000000 0.000000 -0.400000
v 1.000000 0.000000 0.400000
v 1.242641 0.242641 -0.400000
v 1.000000 0.500000 0.400000
v 1.000000 0.500000 -0.400000
v 1.000000 0.150000 -0.400000
v -1.000000 0.250000 0.000000
v 0.000000 0.250000 -1.000000
v 1.146447 0.146447 -0.400000
v 0.500000 0.000000 -0.350000
v 0.500000 0.500000 -0.350000
v 0.500000 0.000000 -0.450000
v 0.500000 0.500000 -0.450000
v 1.700000 0.000000 -0.350000
v 1.700000 0.500000 -0.350000
v 1.700000 0.000000 -0.450000
v 1.700000 0.500000 -0.450000
v 0.500000 0.000000 0.450000
v 0.500000 0.500000 0.450000
v 0.500000 0.000000 0.350000
v 0.500000 0.500000 0.350000
v 1.700000 0.000000 0.450000
v 1.700000 0.500000 0.450000
v 1.700000 0.000000 0.350000
v 1.700000 0.500000 0.350000
v 0.500000 0.450000 0.500000
v 0.500000 0.550000 0.500000
v 0.500000 0.450000 -0.500000
v 0.500000 0.550000 -0.500000
v 1.700000 0.450000 0.500000
v 1.700000 0.550000 0.500000
v 1.700000 0.450000 -0.500000
v 1.700000 0.550000 -0.500000
vn -0.0000 0.5774 -0.8165
vn 0.8165 0.5774 -0.0000
vn -0.0000 -1.0000 -0.0000
vn -0.0000 0.5774 0.8165
vn -0.8165 0.5774 -0.0000
vn -0.0000 -0.0000 1.0000
vn -0.0000 -0.0000 -1.0000
vn 1.0000 -0.0000 -0.0000
vn -1.0000 -0.0000 -0.0000
vn -0.0000 1.0000 -0.0000
vt 0.750000 0.490000
vt 0.250000 0.490000
vt 0.490000 0.250000
vt 0.990000 0.250000
vt 0.875000 0.750000
vt 0.687500 0.675000
vt 0.750000 0.010000
vt 0.250000 0.010000
vt 0.510000 0.250000
vt 0.010000 0.250000
vt 0.875000 0.500000
vt 0.687500 0.575000
vt 0.250000 0.250000
vt 0.580294 0.250000
vt 0.375000 0.000000
vt 0.375000 1.000000
vt 0.625000 0.000000
vt 0.625000 1.000000
vt 0.875000 0.750000
vt 0.750000 0.419706
vt 0.375000 0.250000
vt 0.625000 0.250000
vt 0.875000 0.500000
vt 0.750000 0.080294
vt 0.375000 0.750000
vt 0.625000 0.750000
vt 0.919706 0.250000
vt 0.375000 0.500000
vt 0.625000 0.500000
vt 0.336059 0.096059
vt 0.836059 0.096059
vt 0.500000 0.771447
vt 0.306059 0.126059
vt 0.625000 0.859835
vt 0.734835 0.750000
vt 0.403941 0.163941
vt 0.903941 0.163941
vt 0.500000 0.478553
vt 0.373941 0.193941
vt 0.625000 0.390165
vt 0.734835 0.500000
vt 0.758485 0.173632
vt 0.826368 0.241515
vt 0.868794 0.199088
vt 0.500000 0.375000
vt 0.375000 0.575000
vt 0.800912 0.131206
vt 0.500000 0.875000
vt 0.375000 0.675000
vt 0.389383 0.178500
vt 0.560660 0.435660
vt 0.625000 0.875000
vt 0.750000 0.750000
vt 0.625000 0.675000
vt 0.625000 0.375000
vt 0.750000 0.500000
vt 0.625000 0.575000
vt 0.537500 0.375000
vt 0.450000 0.575000
vt 0.500000 0.125000
vt 0.500000 0.375000
vt 0.536612 0.411612
vt 0.375000 0.000000
vt 0.375000 1.000000
vt 0.125000 0.750000
vt 0.625000 0.000000
vt 0.625000 1.000000
vt 0.875000 0.750000
vt 0.375000 0.250000
vt 0.125000 0.500000
vt 0.625000 0.250000
vt 0.875000 0.500000
vt 0.375000 0.750000
vt 0.625000 0.750000
vt 0.375000 0.500000
vt 0.625000 0.500000
vt 0.375000 0.000000
vt 0.375000 1.000000
vt 0.125000 0.750000
vt 0.625000 0.000000
vt 0.625000 1.000000
vt 0.875000 0.750000
vt 0.375000 0.250000
vt 0.125000 0.500000
vt 0.625000 0.250000
vt 0.875000 0.500000
vt 0.375000 0.750000
vt 0.625000 0.750000
vt 0.375000 0.500000
vt 0.625000 0.500000
vt 0.375000 0.000000
vt 0.375000 1.000000
vt 0.125000 0.750000
vt 0.625000 0.000000
vt 0.625000 1.000000
vt 0.875000 0.750000
vt 0.375000 0.250000
vt 0.125000 0.500000
vt 0.625000 0.250000
vt 0.875000 0.500000
vt 0.375000 0.750000
vt 0.625000 0.750000
vt 0.375000 0.500000
vt 0.625000 0.500000
s 0
f 1/2/1 7/13/1 2/3/1
f 18/36/2 2/3/2 7/13/2 4/8/2 16/30/2 17/33/2 19/39/2 24/50/2
f 12/24/3 23/47/3 16/31/3 4/7/3 5/9/3 1/1/3 2/4/3 18/37/3 22/44/3 14/27/3 10/20/3 8/14/3
f 20/42/3 23/47/3 12/24/3 8/14/3 10/20/3 14/27/3 22/44/3 21/43/3
f 5/10/4 4/8/4 7/13/4
f 5/10/5 7/13/5 1/2/5
f 27/58/6 22/45/6 18/38/6 24/51/6 30/62/6
f 24/51/6 19/40/6 26/55/6 27/58/6 30/62/6
f 25/52/7 17/34/7 16/32/7 23/48/7
f 19/41/3 17/35/3 25/53/3 26/56/3
f 3/5/3 6/11/3 26/56/3 25/53/3
f 11/22/8 9/17/8 8/15/8 10/21/8 28/60/8
f 10/21/8 11/22/8 28/60/8
f 15/29/6 11/22/6 10/21/6 14/28/6 29/61/6
f 14/28/6 15/29/6 29/61/6
f 26/57/9 15/29/9 14/28/9 22/46/9 27/59/9
f 12/25/9 13/26/9 25/54/9 23/49/9
f 9/18/7 13/26/7 12/25/7 8/16/7
f 3/6/3 6/12/3 26/57/3 25/54/3
f 26/57/3 6/12/3 3/6/3 25/54/3 13/26/3 9/19/3 11/23/3 15/29/3
f 31/63/9 32/66/9 34/71/9 33/69/9
f 33/69/7 34/71/7 38/76/7 37/75/7
f 37/75/8 38/76/8 36/74/8 35/73/8
f 35/73/6 36/74/6 32/67/6 31/64/6
f 33/70/3 37/75/3 35/73/3 31/65/3
f 38/76/10 34/72/10 32/68/10 36/74/10
f 39/77/9 40/80/9 42/85/9 41/83/9
f 41/83/7 42/85/7 46/90/7 45/89/7
f 45/89/8 46/90/8 44/88/8 43/87/8
f 43/87/6 44/88/6 40/81/6 39/78/6
f 41/84/3 45/89/3 43/87/3 39/79/3
f 46/90/10 42/86/10 40/82/10 44/88/10
f 47/91/9 48/94/9 50/99/9 49/97/9
f 49/97/7 50/99/7 54/104/7 53/103/7
f 53/103/8 54/104/8 52/102/8 51/101/8
f 51/101/6 52/102/6 48/95/6 47/92/6
f 49/98/3 53/103/3 51/101/3 47/93/3
f 54/104/10 50/100/10 48/96/10 52/102/10
